<mxfile host="app.diagrams.net" modified="2021-07-01T02:41:14.855Z" agent="5.0 (Windows NT 6.1; Win64; x64) AppleWebKit/537.36 (KHTML, like Gecko) Chrome/91.0.4472.114 Safari/537.36" etag="7H6Q84O4flEymV20tUoy" version="14.7.2" type="github">
  <diagram id="rvPr65X8QH4vjv_4hdX0" name="第 1 页">
    <mxGraphModel dx="622" dy="486" grid="1" gridSize="10" guides="1" tooltips="1" connect="1" arrows="1" fold="1" page="1" pageScale="1" pageWidth="827" pageHeight="1169" math="0" shadow="0">
      <root>
        <mxCell id="0" />
        <mxCell id="1" parent="0" />
        <mxCell id="5mjuq5spBAIc47DC_v8C-1" value="主服务器" style="rounded=0;whiteSpace=wrap;html=1;fillColor=#cce5ff;strokeColor=#36393d;fontSize=16;" vertex="1" parent="1">
          <mxGeometry x="110" y="120" width="120" height="400" as="geometry" />
        </mxCell>
        <mxCell id="5mjuq5spBAIc47DC_v8C-2" value="从服务器" style="rounded=0;whiteSpace=wrap;html=1;fillColor=#ffcc99;strokeColor=#36393d;fontSize=16;" vertex="1" parent="1">
          <mxGeometry x="460" y="120" width="120" height="400" as="geometry" />
        </mxCell>
        <mxCell id="5mjuq5spBAIc47DC_v8C-4" value="" style="shape=flexArrow;endArrow=classic;startArrow=classic;html=1;fillColor=#cdeb8b;strokeColor=#36393d;fontSize=16;" edge="1" parent="1">
          <mxGeometry width="100" height="100" relative="1" as="geometry">
            <mxPoint x="250" y="160" as="sourcePoint" />
            <mxPoint x="430" y="160" as="targetPoint" />
          </mxGeometry>
        </mxCell>
        <mxCell id="5mjuq5spBAIc47DC_v8C-5" value="" style="shape=flexArrow;endArrow=classic;html=1;fillColor=#cdeb8b;strokeColor=#36393d;fontSize=16;" edge="1" parent="1">
          <mxGeometry width="50" height="50" relative="1" as="geometry">
            <mxPoint x="260" y="240" as="sourcePoint" />
            <mxPoint x="430" y="240" as="targetPoint" />
          </mxGeometry>
        </mxCell>
        <mxCell id="5mjuq5spBAIc47DC_v8C-6" value="" style="shape=flexArrow;endArrow=classic;html=1;fillColor=#ffcc99;strokeColor=#36393d;fontSize=16;" edge="1" parent="1">
          <mxGeometry width="50" height="50" relative="1" as="geometry">
            <mxPoint x="420" y="320" as="sourcePoint" />
            <mxPoint x="250" y="320" as="targetPoint" />
          </mxGeometry>
        </mxCell>
        <mxCell id="5mjuq5spBAIc47DC_v8C-7" value="" style="shape=flexArrow;endArrow=classic;html=1;fillColor=#cce5ff;strokeColor=#36393d;fontSize=16;" edge="1" parent="1">
          <mxGeometry width="50" height="50" relative="1" as="geometry">
            <mxPoint x="250" y="390" as="sourcePoint" />
            <mxPoint x="420" y="390" as="targetPoint" />
          </mxGeometry>
        </mxCell>
        <mxCell id="5mjuq5spBAIc47DC_v8C-8" value="" style="shape=flexArrow;endArrow=classic;html=1;fillColor=#cce5ff;strokeColor=#36393d;fontSize=16;" edge="1" parent="1">
          <mxGeometry width="50" height="50" relative="1" as="geometry">
            <mxPoint x="255" y="500" as="sourcePoint" />
            <mxPoint x="425" y="500" as="targetPoint" />
          </mxGeometry>
        </mxCell>
        <mxCell id="5mjuq5spBAIc47DC_v8C-9" value="网络连接断开" style="text;html=1;align=center;verticalAlign=middle;resizable=0;points=[];autosize=1;strokeColor=#B20000;fontSize=16;fillColor=#e51400;fontColor=#ffffff;" vertex="1" parent="1">
          <mxGeometry x="300" y="110" width="110" height="20" as="geometry" />
        </mxCell>
        <mxCell id="5mjuq5spBAIc47DC_v8C-12" value="" style="endArrow=none;html=1;fontSize=16;fillColor=#e51400;strokeColor=#B20000;strokeWidth=2;" edge="1" parent="1">
          <mxGeometry width="50" height="50" relative="1" as="geometry">
            <mxPoint x="350" y="180" as="sourcePoint" />
            <mxPoint x="430" y="140" as="targetPoint" />
          </mxGeometry>
        </mxCell>
        <mxCell id="5mjuq5spBAIc47DC_v8C-13" value="" style="endArrow=none;html=1;fontSize=16;fillColor=#e51400;strokeColor=#B20000;strokeWidth=2;" edge="1" parent="1">
          <mxGeometry width="50" height="50" relative="1" as="geometry">
            <mxPoint x="430" y="180" as="sourcePoint" />
            <mxPoint x="350" y="140" as="targetPoint" />
          </mxGeometry>
        </mxCell>
        <mxCell id="5mjuq5spBAIc47DC_v8C-14" value="连接恢复" style="text;html=1;align=center;verticalAlign=middle;resizable=0;points=[];autosize=1;strokeColor=#36393d;fontSize=16;fillColor=#cdeb8b;" vertex="1" parent="1">
          <mxGeometry x="300" y="210" width="80" height="20" as="geometry" />
        </mxCell>
        <mxCell id="5mjuq5spBAIc47DC_v8C-15" value="psync {runId} {offset}" style="text;html=1;align=center;verticalAlign=middle;resizable=0;points=[];autosize=1;strokeColor=#36393d;fontSize=16;fillColor=#ffcc99;" vertex="1" parent="1">
          <mxGeometry x="260" y="280" width="160" height="20" as="geometry" />
        </mxCell>
        <mxCell id="5mjuq5spBAIc47DC_v8C-16" value="CONTINUE" style="text;html=1;align=center;verticalAlign=middle;resizable=0;points=[];autosize=1;strokeColor=#36393d;fontSize=16;fillColor=#cce5ff;" vertex="1" parent="1">
          <mxGeometry x="280" y="360" width="100" height="20" as="geometry" />
        </mxCell>
        <mxCell id="5mjuq5spBAIc47DC_v8C-17" value="发送主从服务器断线期间，&lt;br style=&quot;font-size: 16px;&quot;&gt;主服务器执行的写命令" style="text;html=1;align=center;verticalAlign=middle;resizable=0;points=[];autosize=1;strokeColor=#36393d;fontSize=16;fillColor=#cce5ff;" vertex="1" parent="1">
          <mxGeometry x="235" y="440" width="210" height="40" as="geometry" />
        </mxCell>
      </root>
    </mxGraphModel>
  </diagram>
</mxfile>
